<svg xmlns="http://www.w3.org/2000/svg" width="24" height="25" viewBox="0 0 24 25" fill="none">
  <g clip-path="url(#clip0_64_18299)">
    <path d="M21.5971 3.32532L12.4109 0.304777C12.3 0.268259 12.1513 0.25 12.0026 0.25C11.854 0.25 11.7053 0.268259 11.5944 0.304777L2.40822 3.32532C2.18383 3.39835 2 3.64876 2 3.8783V16.4613C2 16.6908 2.15409 16.9934 2.34063 17.1369L11.6593 24.1431C11.7539 24.2135 11.8756 24.25 11.9999 24.25C12.1243 24.25 12.2487 24.2135 12.3406 24.1431L21.6593 17.1369C21.8458 16.996 21.9999 16.6934 21.9999 16.4613V3.8783C22.0053 3.64876 21.8215 3.40096 21.5971 3.32532Z" fill="#3594FF"/>
    <path d="M7.00146 14.7809L9.07735 12.705C8.13717 11.2157 8.31664 9.22017 9.61575 7.92107C11.1238 6.41303 13.5666 6.41303 15.0747 7.92107C16.5827 9.4291 16.5827 11.872 15.0747 13.38C13.7756 14.6791 11.7827 14.8586 10.2907 13.9184L8.21485 15.9943C8.13182 16.0773 7.99521 16.0773 7.91217 15.9943L7.00146 15.0836C6.96158 15.0433 6.93921 14.9889 6.93921 14.9322C6.93921 14.8755 6.96158 14.8212 7.00146 14.7809Z" fill="white" fill-opacity="0.85"/>
  </g>
  <defs>
    <clipPath id="clip0_64_18299">
      <rect width="24" height="24" fill="white" transform="translate(0 0.25)"/>
    </clipPath>
  </defs>
</svg>