<svg xmlns="http://www.w3.org/2000/svg" width="24" height="25" viewBox="0 0 24 25" fill="none">
  <g clip-path="url(#clip0_64_18328)">
    <path d="M21.4282 12.9082H11.8389V3.31889C11.8389 3.20104 11.7425 3.10461 11.6246 3.10461H10.9282C9.52112 3.1023 8.12749 3.37824 6.82748 3.91654C5.52746 4.45484 4.34672 5.24489 3.35317 6.24122C2.37471 7.21665 1.59509 8.37289 1.05763 9.64568C0.498362 10.9658 0.211378 12.3852 0.213883 13.8189C0.211579 15.2259 0.487516 16.6196 1.02582 17.9196C1.56412 19.2196 2.35416 20.4003 3.35049 21.3939C4.33353 22.3769 5.47996 23.151 6.75496 23.6894C8.07506 24.2487 9.49449 24.5357 10.9282 24.5332C12.3352 24.5355 13.7288 24.2595 15.0289 23.7212C16.3289 23.1829 17.5096 22.3929 18.5032 21.3966C19.4862 20.4135 20.2603 19.2671 20.7987 17.9921C21.358 16.672 21.645 15.2526 21.6425 13.8189V13.1225C21.6425 13.0046 21.546 12.9082 21.4282 12.9082ZM23.7853 11.4189L23.7157 10.6635C23.488 8.19657 22.3925 5.86889 20.63 4.11175C18.8662 2.35138 16.5433 1.26193 14.0621 1.03139L13.3041 0.961751C13.1782 0.951037 13.071 1.04747 13.071 1.17336V11.4618C13.071 11.5796 13.1675 11.676 13.2853 11.676L23.571 11.6493C23.6969 11.6493 23.796 11.5421 23.7853 11.4189Z" fill="#3594FF"/>
  </g>
  <defs>
    <clipPath id="clip0_64_18328">
      <rect width="24" height="24" fill="white" transform="translate(0 0.75)"/>
    </clipPath>
  </defs>
</svg>