<svg xmlns="http://www.w3.org/2000/svg" width="24" height="25" viewBox="0 0 24 25" fill="none">
  <path d="M12.0039 17.307C11.4139 17.307 10.9399 17.787 10.9399 18.384C10.9399 18.864 11.4139 19.346 12.0039 19.346C12.5939 19.346 13.0679 18.865 13.0679 18.269C12.9529 17.787 12.4789 17.307 12.0039 17.307ZM20.2049 21.75H3.80194C2.37794 21.75 1.54394 20.192 2.26394 18.981C4.99694 14.174 7.73094 9.48099 10.4649 4.65799C11.1849 3.44799 12.9529 3.44799 13.6739 4.65799C16.2939 9.34899 19.0269 14.157 21.7609 18.981C22.4649 20.191 21.5149 21.749 20.2049 21.749V21.75ZM12.5929 15.616L12.9529 9.84599C12.9529 9.24999 12.4789 8.76899 11.8889 8.76899C11.4139 8.76899 10.9389 9.24999 10.9389 9.84599L11.3009 15.616C11.4139 16.461 12.5929 16.461 12.5929 15.616Z" fill="#FB5A5A"/>
</svg>