<svg xmlns="http://www.w3.org/2000/svg" width="24" height="25" viewBox="0 0 24 25" fill="none">
  <path d="M12.0039 16.807C11.4139 16.807 10.9399 17.287 10.9399 17.884C10.9399 18.364 11.4139 18.846 12.0039 18.846C12.5939 18.846 13.0679 18.365 13.0679 17.769C12.9529 17.287 12.4789 16.807 12.0039 16.807ZM20.2049 21.25H3.80194C2.37794 21.25 1.54394 19.692 2.26394 18.481C4.99694 13.674 7.73094 8.98099 10.4649 4.15799C11.1849 2.94799 12.9529 2.94799 13.6739 4.15799C16.2939 8.84899 19.0269 13.657 21.7609 18.481C22.4649 19.691 21.5149 21.249 20.2049 21.249V21.25ZM12.5929 15.116L12.9529 9.34599C12.9529 8.74999 12.4789 8.26899 11.8889 8.26899C11.4139 8.26899 10.9389 8.74999 10.9389 9.34599L11.3009 15.116C11.4139 15.961 12.5929 15.961 12.5929 15.116Z" fill="#FF974A"/>
</svg>